<?xml version="1.0" encoding="UTF-8"?>
<!-- Generator: Adobe Illustrator 27.7.0, SVG Export Plug-In . SVG Version: 6.00 Build 0)  -->
<svg version="1.1" id="Layer_1" xmlns="http://www.w3.org/2000/svg" xmlns:xlink="http://www.w3.org/1999/xlink" x="0px" y="0px" viewBox="0 0 195.1 40.3" style="enable-background:new 0 0 195.1 40.3;" xml:space="preserve">
<style type="text/css">
	.st0{fill:#50B748;}
	.st1{fill:#006B3F;}
</style>
<g>
	<g>
		<g>
			<g>
				<path class="st0" d="M99.9,11.4l-0.5,2.7c-1.3,5.9-1.8,7.7-2.9,13.6l-0.2,0.2L92.7,28l-0.2-0.2l1.4-6l0.4-2      c-1.5,0-3-0.1-4.6-0.1c-1.2,0-2.1,0-3,0c-0.6,2.6-1.1,5.3-1.6,7.9l-0.2,0.2L81.3,28l-0.2-0.2l1.4-6l0.6-2.6      c0.7-2.9,1.3-5.8,1.7-8.8l0.2-0.2c1.2-0.1,2.5-0.4,3.7-0.6l0.2,0.2l-0.4,1.7L88,14.1l-0.6,2.5c1.3,0,2.6,0.1,3.8,0.1      c1.4,0,2.3,0,3.8-0.1c0.5-2.2,0.7-3.4,1.1-6.3l0.2-0.2c1.2-0.1,2.5-0.4,3.7-0.6l0.2,0.2L99.9,11.4z M56.3,19.3      c-0.6,2.9-2,6.7-5.8,6.7c-1.9,0-3.6-1.2-3.6-4c0-1.3,0.7-9.8,6.2-9.8c1.3,0,3.6,0.6,3.6,4.1C56.7,17.3,56.6,18.3,56.3,19.3       M59.9,20.3c0.3-1.2,0.5-2.5,0.5-3.7c0-4.5-2.7-7.1-7.3-7.1c-1.1,0-2.3,0.2-3.3,0.5c0.2-0.3,0.3-0.6,0.5-0.9      c0.3-0.4,0.6-0.8,0.9-1.1c0.9-0.9,2.2-1.4,3.5-1.4c1.6,0,3.3-0.2,4.9-0.6l0.5-3c-1.4,0.3-2.9,0.4-4.4,0.4      c-7.5,0.1-11,7.6-12.2,15.4c0,0.2-0.1,0.4-0.1,0.5c-0.1,0.7-0.1,1.3-0.1,2c0,4.8,2.6,7.2,7.2,7.2C57,28.6,59.2,23.3,59.9,20.3       M74.6,23.4c-0.4,0.3-0.7,0.6-1.2,0.9c-0.9,0.5-2,0.8-3,0.8c-3.2,0-4.1-2.7-4.1-4.4c0.1-2.8,1.5-5.5,3.7-7.2      c1.6-1,3.5-1.5,5.5-1.5c0.5,0,1,0,1.6,0L74.6,23.4z M81.3,9.8l-0.2-0.3h-4.8c-3.2,0-7.7,0.2-10.9,4c-1.7,2.1-2.7,4.8-2.8,7.5      c0,4.4,2.9,6.9,6.4,6.9c1.9,0.1,3.7-0.6,5.1-1.8l-0.2,1.4l0.2,0.2l3.3-0.1l0.2-0.2c0.7-4.1,0.9-5.5,2.2-10.8L81.3,9.8z       M129.1,23.4c-0.4,0.3-0.7,0.6-1.2,0.9c-0.9,0.5-2,0.8-3,0.8c-3.2,0-4.1-2.7-4.1-4.4c0.1-2.8,1.5-5.5,3.7-7.2      c1.6-1,3.5-1.5,5.5-1.5c0.5,0,1,0,1.6,0L129.1,23.4z M135.8,9.8l-0.2-0.3h-4.8c-3.2,0-7.7,0.2-10.9,4c-1.7,2.1-2.7,4.8-2.8,7.5      c0,4.4,2.9,6.9,6.4,6.9c1.9,0.1,3.7-0.6,5.1-1.8l-0.2,1.4l0.2,0.2l3.3-0.1l0.2-0.2c0.7-4.1,0.9-5.5,2.2-10.8L135.8,9.8z       M116.2,11.7c1.4-1.2,1.6-1.3,1.9-1.6L118,9.8h-4l-0.4,0.2c-0.6,0.6-3.5,3.7-4.7,4.8c-0.8,0.8-1.6,1.6-2.5,2.3l0.7-3l0.5-2.7      l0.4-1.7l-0.2-0.2c-1.2,0.3-2.4,0.5-3.7,0.6l-0.2,0.2c-0.4,3-1,5.9-1.7,8.8l-0.6,2.6l-1.4,6l0.2,0.2l3.6-0.1l0.2-0.2      c0.9-4.5,1.3-6.6,2.1-10.1l2.4,4.9c1.3,2.5,1.5,3,2.4,5.2l0.3,0.2l3.9-0.1l0.2-0.3l-5.4-10.3l4.5-4.2      C115.3,12.5,115.6,12.2,116.2,11.7 M9.7,17.3c0-4.2,3.4-7.7,7.7-7.7c4.2,0,7.7,3.4,7.7,7.7c0,4.2-3.4,7.7-7.7,7.7      S9.7,21.6,9.7,17.3"/>
			</g>
		</g>
		<path class="st1" d="M173,22.9l-1.1,4.1l-0.2,0.2c-0.3,0.1-0.6,0.3-1,0.4c-1.1,0.3-2.3,0.5-3.5,0.5c-4.9,0-8.1-3-8.1-8.2    c0-4.8,3.3-10.9,10.7-10.9c0.9,0,1.8,0.1,2.7,0.3c0.5,0.1,1.1,0.3,1.6,0.5c0.4,0.2,0.7,0.4,1.1,0.6v0.2l-1.2,3.9l-0.2,0.1    c-0.2-0.2-0.4-0.5-0.6-0.7c-0.8-0.7-1.9-1-2.9-1c-3.4,0-5.5,3.4-5.5,6.7c0,3.5,2.2,4.6,4.1,4.6c1.4,0,2.7-0.5,3.7-1.4L173,22.9z     M182.8,17c2.1-2.4,4.2-4.9,6.1-7.5l0.3-0.2c2.4,0,3,0,5.7-0.1l0.1,0.3c-0.4,0.4-2.5,2.6-3,3.1l-3.9,4.2c1.9,5.2,2.3,5.9,4,10.5    l-0.2,0.3l-5.8,0.1l-0.3-0.2c-0.6-1.9-2.3-7.6-3.2-9.9c-0.8,3.7-1.2,5.7-2,9.7l-0.2,0.2l-5.7,0.1l-0.1-0.2l1.4-6l0.6-2.4    c0.7-3,1.2-6.1,1.6-9.1l0.3-0.3c1.9-0.2,3.9-0.5,5.8-1l0.2,0.2l-0.5,1.9l-0.7,3.4L182.8,17z M157.1,27.8H136l-0.1-0.2    c0.3-0.9,0.6-1.9,1.1-3.5l0.1-0.2l0.1-0.4l0.3-0.2c0.4-0.2,2.7-1.5,5.3-6.3c2.4-4.4,3.7-7.6,3.7-7.6l0.3-0.2h0.1    c1.8,0,4.7,0,6.4,0c2.1,0,2.6,0,4.3-0.1l0.2,0.2c-0.3,1.6-0.3,1.6-0.3,1.6l-0.7,3.4l-0.4,1.9l-0.5,2.1c-0.4,1.7-0.7,3.3-1,5    c1.1,0,2.1,0,3.2-0.1l0.1,0.2l-0.2,0.9l-0.4,1.8c-0.1,0.5-0.3,1.3-0.3,1.3C136,27.8,157.1,27.8,157.1,27.8z M151.6,13.6    c-0.7,0-1.5,0-2.3,0l-2.3,4.6c-0.9,1.9-2.1,3.7-3.6,5.3h1.5h4.8l0.5-1.9l0.6-2.4c0.6-2.7,0.9-4,1.1-5.6H151.6L151.6,13.6z     M59.4,35l-0.6,2.5c-0.2,0.2-0.4,0.3-0.6,0.3c-0.1,0-0.2,0-0.3,0c-0.5,0-0.8-0.4-0.9-0.8c0-0.1,0-0.1,0-0.2c0-0.5,0.2-0.9,0.4-1.3    c0.4-0.5,1-0.7,1.7-0.6L59.4,35z M60.3,34.4h-1.1c-1-0.2-2.1,0.3-2.6,1.2c-0.2,0.4-0.4,0.9-0.4,1.3c-0.1,0.7,0.5,1.4,1.2,1.4    c0.1,0,0.1,0,0.2,0c0.4,0,0.8-0.1,1.1-0.3l-0.1,0.4c0,0.7-0.6,1.2-1.2,1.2c-0.5,0-0.9-0.2-1.2-0.5h-0.1l-0.3,0.5v0.1    c0.1,0.1,0.3,0.2,0.4,0.3c0.4,0.2,0.7,0.2,1.1,0.2c0.6,0,1.1-0.2,1.5-0.6c0.3-0.5,0.6-1.1,0.6-1.7l0.2-1    C60,35.7,60.1,35.4,60.3,34.4L60.3,34.4z M61.5,37.5l0.2-0.7c0.1-0.5,0.2-1,0.5-1.4c0.1-0.2,0.3-0.2,0.5-0.3c0.1,0,0.2,0,0.3,0.1    h0.1l0.3-0.7v-0.1c-0.1-0.1-0.2-0.1-0.3-0.1c-0.3,0-0.6,0.2-0.8,0.5c-0.1,0.1-0.1,0.2-0.2,0.3l0.2-0.7v-0.1    c-0.3,0.1-0.5,0.1-0.8,0.1l-0.1,0.1c-0.1,0.7-0.2,1.3-0.4,1.9l-0.2,0.7l-0.3,1.1l0,0h0.8l0.1-0.1L61.5,37.5z M66.1,36.4    c0,0.7-0.5,1.3-1.2,1.4c-0.4,0-0.8-0.3-0.8-0.7V37c0-0.3,0.2-2.1,1.3-2.1c0.4,0,0.8,0.3,0.8,0.7c0,0.1,0,0.1,0,0.2    C66.2,36,66.2,36.2,66.1,36.4 M66.9,36.6c0.1-0.3,0.1-0.5,0.1-0.8c0.1-0.8-0.5-1.5-1.3-1.5c-0.1,0-0.2,0-0.3,0    c-1.6,0-2.1,1.6-2.1,2.5c-0.1,0.8,0.4,1.4,1.2,1.5c0.1,0,0.2,0,0.4,0C65.9,38.4,66.7,37.6,66.9,36.6 M70.9,37.1l0.2-0.8l0.4-1.8    v-0.1h-0.8l-0.1,0.1c-0.1,0.5-0.1,0.7-0.3,1.6L70,37.4c-0.3,0.3-0.6,0.4-1,0.4c-0.3,0-0.6-0.2-0.6-0.5v-0.1c0-0.3,0.1-0.7,0.2-1    c0-0.1,0.4-1.4,0.4-1.7l0,0h-0.8l-0.1,0.1c-0.1,0.4-0.1,0.5-0.2,1l-0.2,0.7c-0.1,0.4-0.2,0.7-0.2,1.1c0,0.6,0.4,1,1,1h0.1    c0.5,0,0.9-0.2,1.2-0.5l-0.1,0.4v0.1h0.7h0.1L70.9,37.1z M73.2,35.3c0.2-0.2,0.5-0.4,0.9-0.4c0.5,0,0.8,0.4,0.9,0.8v0.1    c0,1-0.9,1.8-1.9,1.8c0,0,0,0-0.1,0s-0.2,0-0.3,0L73.2,35.3z M73.4,34.4L73.4,34.4l-0.8,0.1h-0.1c-0.1,0.4-0.1,0.6-0.2,1.3    c-0.1,0.6-0.3,1.3-0.4,1.9l-0.2,0.6L71.3,40l0,0h0.8h0.1c0.2-0.9,0.2-1.1,0.4-1.8c0.1,0,0.3,0,0.4,0c0.9,0.1,1.7-0.3,2.3-1    c0.3-0.4,0.5-1,0.5-1.5c0.1-0.8-0.5-1.4-1.2-1.5h-0.1c-0.4,0-0.8,0.1-1.1,0.4L73.4,34.4z M45,36.3c0,0.4-0.2,0.7-0.4,1    c-0.1,0.2-0.3,0.3-0.6,0.3c-0.2,0-0.5-0.1-0.6-0.4c0-0.1-0.1-0.2,0-0.3c0-0.6,0.2-1.1,0.5-1.6c0.1-0.2,0.4-0.3,0.6-0.3    c0.3,0,0.6,0.3,0.6,0.6v0.1C45.1,35.9,45,36.1,45,36.3 M46.3,36.6c0.1-0.3,0.1-0.5,0.1-0.8c0-0.5-0.1-0.9-0.5-1.3    c-0.4-0.3-0.9-0.5-1.4-0.4c-1.4,0-2.4,1.1-2.4,2.5v0.1c0,0.5,0.1,1,0.5,1.3s0.9,0.4,1.3,0.4c0.6,0,1.1-0.1,1.6-0.5    C45.9,37.6,46.2,37.2,46.3,36.6 M49,37.4L49,37.4c-0.2,0-0.3,0.1-0.5,0.1s-0.3-0.1-0.4-0.3l0,0c0-0.3,0.1-0.5,0.1-0.7l0.3-1.4h0.7    l0.1-0.1c0.1-0.4,0.1-0.5,0.2-0.8v-0.1h-0.8l0.2-0.7l0.2-0.7l0,0c-0.5,0.2-0.7,0.2-1.3,0.3l-0.1,0.1l-0.2,1H47h-0.1L46.7,35v0.1    h0.5l-0.3,1.1c-0.1,0.4-0.2,0.9-0.3,1.4c0,0.5,0.4,1,1,0.9c0.1,0,0.2,0,0.2,0c0.2,0,0.5,0,0.7-0.1l0.1-0.1L49,37.4z M51.4,35.3    c0.2-0.1,0.4-0.2,0.6-0.2c0.3,0,0.6,0.3,0.6,0.6v0.1c0,0.5-0.2,1-0.6,1.4c-0.2,0.2-0.5,0.3-0.9,0.3c-0.1,0-0.1,0-0.2,0L51.4,35.3z     M51.6,34.2L51.6,34.2l-1.4,0.2l-0.1,0.1c-0.1,0.4-0.1,0.9-0.2,1.3c-0.1,0.7-0.3,1.4-0.5,2.1l-0.1,0.6l-0.5,1.8v0.1    c0.3,0,0.5,0,0.8,0c0.2,0,0.4,0,0.5,0h0.1l0.4-1.9c1,0.1,1.9-0.2,2.6-0.9c0.4-0.5,0.6-1.1,0.6-1.7c0.1-0.7-0.4-1.4-1.1-1.6    c-0.1,0-0.1,0-0.2,0c-0.4,0-0.8,0.1-1.1,0.4L51.6,34.2z M0,17.3C0,7.8,7.7,0,17.3,0v6.3c-6.1,0-11.1,5-11.1,11.1s5,11.1,11.1,11.1    s11.1-5,11.1-11.1h6.3c0.1,9.6-7.6,17.4-17.2,17.5C7.9,34.8,0.1,27.2,0,17.6C0,17.5,0,17.4,0,17.3 M22.7,7.6c0-2.4,2-4.4,4.4-4.4    s4.4,2,4.4,4.4s-2,4.4-4.4,4.4S22.7,10,22.7,7.6"/>
	</g>
</g>
</svg>